<svg width="99" height="114" viewBox="0 0 99 114" fill="none" xmlns="http://www.w3.org/2000/svg">
<g clip-path="url(#clip0_67_708)">
<g opacity="0.2">
<path opacity="0.2" fill-rule="evenodd" clip-rule="evenodd" d="M56.4864 82.1748C77.0106 82.1748 93.6485 65.3856 93.6485 44.6748C93.6485 23.9641 77.0106 7.1748 56.4864 7.1748C35.9622 7.1748 19.3242 23.9641 19.3242 44.6748C19.3242 65.3856 35.9622 82.1748 56.4864 82.1748Z" fill="#B0BEC5"/>
<path opacity="0.2" fill-rule="evenodd" clip-rule="evenodd" d="M73.3044 114C76.6079 114 79.286 111.298 79.286 107.964C79.286 104.63 76.6079 101.928 73.3044 101.928C70.0008 101.928 67.3228 104.63 67.3228 107.964C67.3228 111.298 70.0008 114 73.3044 114Z" fill="#2B44FF"/>
<path opacity="0.2" fill-rule="evenodd" clip-rule="evenodd" d="M47.3356 0L54.4844 7.21371L47.3356 14.4274L40.1868 7.21371L47.3356 0Z" fill="#2B44FF"/>
<path opacity="0.2" fill-rule="evenodd" clip-rule="evenodd" d="M27.4941 99.4809L30.9955 103.014L27.4941 106.547L23.9927 103.014L27.4941 99.4809Z" fill="#FF9B21"/>
<path opacity="0.2" fill-rule="evenodd" clip-rule="evenodd" d="M78.1189 7.1748L79.8697 8.94141L78.1189 10.7081L76.3682 8.94141L78.1189 7.1748Z" fill="#2026A2"/>
</g>
<g filter="url(#filter0_d_67_708)">
<path d="M39.4739 15.6283L23.6316 16.1866C17.6505 16.3973 12.9711 21.461 13.1799 27.4965L15.1158 83.4367C15.3247 89.4723 20.3427 94.1942 26.3239 93.9834L42.1661 93.4252C48.1473 93.2144 52.8267 88.1508 52.6178 82.1152L50.682 26.175C50.4731 20.1395 45.4551 15.4175 39.4739 15.6283Z" fill="#F2F2F2"/>
</g>
<path fill-rule="evenodd" clip-rule="evenodd" d="M21.7225 17.9143C17.7351 18.0548 14.6155 21.4306 14.7547 25.4543L16.8244 85.2603C16.9637 89.2839 20.309 92.4321 24.2965 92.2914L43.9632 91.5984C47.9506 91.458 51.0701 88.0821 50.931 84.0585L48.8612 24.2524C48.722 20.2287 45.3769 17.0808 41.3892 17.2213L21.7225 17.9143ZM22.4214 17.8897C22.4728 19.3736 23.7065 20.5345 25.1771 20.4827L38.2239 20.023C39.6943 19.9712 40.8449 18.7262 40.7934 17.2423L22.4214 17.8897Z" fill="#B0BEC5"/>
<path d="M40.7298 57.6C47.2975 57.6 52.6217 52.2274 52.6217 45.6C52.6217 38.9726 47.2975 33.6 40.7298 33.6C34.1621 33.6 28.8379 38.9726 28.8379 45.6C28.8379 52.2274 34.1621 57.6 40.7298 57.6Z" fill="#CDEBFA"/>
<path fill-rule="evenodd" clip-rule="evenodd" d="M79.8881 47.0649C78.7607 47.1462 77.785 46.9638 77.4396 46.6557C76.5729 45.8835 78.3407 42.1533 79.8459 41.0985C81.3508 40.0434 85.6387 41.451 84.3862 44.4303C83.9515 45.4644 83.0861 46.1418 82.105 46.5534L80.5921 52.2957L77.395 50.652L79.8881 47.0649Z" fill="#B28B67"/>
<path fill-rule="evenodd" clip-rule="evenodd" d="M79.4459 38.3574C79.6309 38.1567 79.9103 38.0472 80.1803 38.1111C80.246 38.1264 80.309 38.1516 80.3676 38.1846C80.3887 38.1966 80.3916 38.2059 80.4092 38.196C80.4223 38.1885 80.4362 38.1612 80.446 38.1495C80.4764 38.1135 80.5088 38.079 80.5436 38.0472C80.6616 37.938 80.8064 37.8624 80.9586 37.8141C81.244 37.7241 81.5666 37.7265 81.8454 37.8405C81.9979 37.9026 82.1311 38.0013 82.245 38.1204C82.3042 38.1819 82.3577 38.2485 82.4082 38.3175C82.4234 38.3382 82.4638 38.4225 82.4858 38.43C82.5102 38.4378 82.5842 38.4045 82.6095 38.3997C82.9249 38.3409 83.2395 38.4159 83.5207 38.5632C83.8382 38.7294 84.137 38.9031 84.3038 39.2358C84.3389 39.306 84.3695 39.3792 84.3965 39.4533C84.4105 39.4923 84.4236 39.5316 84.4346 39.5718C84.4411 39.5958 84.4474 39.6201 84.4527 39.6444C84.4616 39.6861 84.453 39.6936 84.4967 39.6903C84.6641 39.6777 84.8309 39.7173 84.9706 39.8124C85.0539 39.8691 85.1264 39.9402 85.1906 40.0179C85.2123 40.044 85.2528 40.1253 85.2822 40.1409C85.3113 40.1568 85.3975 40.1448 85.4335 40.1493C85.6285 40.1724 85.8129 40.2483 85.971 40.365C86.1339 40.4856 86.2725 40.647 86.3733 40.8234C86.4217 40.9083 86.4583 40.9935 86.4735 41.0904C86.48 41.1324 86.4833 41.1747 86.494 41.2158C86.5002 41.2398 86.5204 41.2719 86.5175 41.2968C86.5192 41.2818 86.7574 41.3067 86.7788 41.3115C86.8923 41.3364 86.9913 41.3943 87.0731 41.4774C87.2265 41.6334 87.3157 41.8521 87.3749 42.0597C87.4055 42.1665 87.4236 42.2766 87.4302 42.3873C87.4334 42.4404 87.434 42.4935 87.4325 42.5466C87.4316 42.5721 87.4248 42.6015 87.4281 42.6267C87.4325 42.6591 87.4432 42.6654 87.4676 42.6912C87.5916 42.822 87.6835 42.9831 87.7266 43.1589C87.7703 43.3368 87.7622 43.524 87.7102 43.6989C87.7072 43.7094 87.6885 43.749 87.6915 43.7568C87.6954 43.7676 87.7272 43.7802 87.7382 43.7874C87.7753 43.8126 87.8113 43.8399 87.8455 43.8693C87.9088 43.9233 87.9659 43.9845 88.0152 44.0514C88.2079 44.3124 88.2703 44.6484 88.2237 44.9661C88.1743 45.2994 88.0081 45.6249 87.7539 45.846C87.7126 45.8817 87.6689 45.9144 87.6225 45.9429C87.594 45.96 87.5889 45.9576 87.5856 45.9894C87.5818 46.0251 87.588 46.0647 87.5868 46.1004C87.583 46.2177 87.563 46.3341 87.5306 46.4466C87.4774 46.6311 87.404 46.8162 87.2869 46.9695C87.2328 47.0409 87.1682 47.1048 87.0942 47.1549C87.0565 47.1804 87.016 47.2026 86.9741 47.2203C86.9524 47.2296 86.9301 47.238 86.9075 47.2449C86.8947 47.2491 86.8796 47.2506 86.8674 47.2566C86.8379 47.2704 86.8436 47.2494 86.8359 47.2884C86.8246 47.3424 86.8302 47.4045 86.8246 47.46C86.8189 47.5173 86.8112 47.574 86.8017 47.6307C86.7826 47.7456 86.758 47.8596 86.7226 47.9706C86.6545 48.1833 86.5433 48.39 86.3599 48.5232C86.2814 48.5802 86.1907 48.6189 86.0956 48.6363C86.0489 48.6447 86.0014 48.6483 85.9541 48.6468C85.9297 48.6462 85.9026 48.6375 85.8839 48.6519C85.864 48.6675 85.8577 48.7158 85.8494 48.7404C85.7766 48.9549 85.6847 49.1724 85.5269 49.338C85.3815 49.4907 85.1814 49.5888 84.973 49.6146C84.5687 49.6644 84.1688 49.4445 83.9351 49.1178C83.8745 49.0326 83.8239 48.9399 83.7868 48.8421C83.4916 48.99 83.1348 48.7971 82.913 48.5976C82.6365 48.3492 82.4935 47.9937 82.4947 47.6238C82.168 47.7678 81.7854 47.4699 81.7812 47.1291C81.78 47.0457 81.7964 46.9629 81.8234 46.8843C81.8377 46.8432 81.8606 46.806 81.876 46.7655C81.8957 46.7142 81.8873 46.6503 81.8924 46.5936C81.9028 46.4832 81.9281 46.3767 81.9771 46.2774C82.0027 46.2252 82.0348 46.1781 82.0654 46.1295C82.0934 46.0854 82.1023 46.0359 82.118 45.9867C82.193 46.0425 82.3039 46.0713 82.3931 46.0872C82.4808 46.1025 82.5827 46.077 82.6645 46.0479C82.8548 45.9804 83.0174 45.8475 83.1556 45.7029C83.4592 45.3855 83.6402 44.9109 83.3697 44.5122C83.2436 44.3262 82.721 44.058 82.4891 43.9986C82.2453 43.9362 81.7521 44.2953 81.7167 44.3346C81.695 44.3592 81.681 44.3961 81.6456 44.4018C81.5683 44.4141 81.5113 44.2941 81.4875 44.2371C81.4462 44.1387 81.436 44.0307 81.4331 43.9251C81.4271 43.6953 81.4465 43.4619 81.4908 43.2363C81.5249 43.0626 81.5767 42.8919 81.596 42.7149C81.615 42.5391 81.5942 42.3624 81.5006 42.2091C81.3986 42.0426 81.2535 41.9076 81.1203 41.7672C80.988 41.628 80.8649 41.4777 80.801 41.2935C80.787 41.253 80.7746 41.2113 80.7683 41.169C80.7633 41.1354 80.7698 41.0796 80.7511 41.0505C80.7219 41.0049 80.6301 41.037 80.5828 41.0415C80.35 41.0637 80.1241 41.1456 79.9189 41.2566C79.715 41.3667 79.5354 41.4816 79.3606 41.6319C79.231 41.7435 79.1031 41.9058 78.9423 41.9691C78.8704 41.9976 78.5148 41.8542 78.4277 41.7522C78.3403 41.6505 78.2764 41.4699 78.2764 41.3772C78.2767 41.2824 78.3094 41.1951 78.367 41.121C78.4012 41.0775 78.4435 41.0421 78.4779 41.0001C78.5071 40.9647 78.5344 40.9311 78.5722 40.9044C78.6438 40.8537 78.7315 40.836 78.8175 40.8537C78.7758 40.7406 78.755 40.6197 78.7592 40.4991C78.7636 40.3737 78.7862 40.2303 78.8311 40.1133C78.8677 40.0182 78.9289 39.9318 79.0172 39.8793C79.1097 39.8244 79.2277 39.8181 79.3321 39.8079C79.2598 39.6507 79.2152 39.4824 79.195 39.3108C79.1561 38.9772 79.2126 38.6112 79.4459 38.3574Z" fill="#191847"/>
<path fill-rule="evenodd" clip-rule="evenodd" d="M77.736 63.4287L70.3981 82.1697L65.4766 98.0136H63.5332L71.0572 63.4287H77.736Z" fill="#997659"/>
<path fill-rule="evenodd" clip-rule="evenodd" d="M79.2139 63.4287C79.2918 70.0146 80.4314 78.8811 80.6136 79.2915C80.7955 79.7022 93.1833 89.7327 93.1833 89.7327L91.8449 91.1781C91.8449 91.1781 77.2283 82.578 76.5519 81.4311C75.8756 80.2842 73.6735 69.7293 71.9058 63.4287H79.2139Z" fill="#B28B67"/>
<path fill-rule="evenodd" clip-rule="evenodd" d="M92.8698 89.7711C92.9864 89.4402 93.3366 89.2356 93.6585 89.3691C93.9017 89.4699 94.1559 89.5914 94.2915 89.7063C94.6013 89.9685 95.109 90.576 95.109 90.576C94.8073 90.9384 89.6887 97.0941 89.6887 97.0941C89.6887 97.0941 88.6452 96.6432 89.0341 96.0396C89.4229 95.436 89.6703 95.0286 89.6703 95.0286L90.8092 91.0134C90.8553 90.8508 91.0254 90.759 91.185 90.81L91.6702 90.9651C91.6702 90.9651 92.3258 90.657 92.5895 90.3399C92.6965 90.2112 92.7931 89.9892 92.8698 89.7711Z" fill="#E4E4E4"/>
<path fill-rule="evenodd" clip-rule="evenodd" d="M65.5607 97.2363C65.8868 97.1136 66.2671 97.2531 66.3729 97.5876C66.4526 97.8405 66.5236 98.115 66.5236 98.2935C66.5236 98.7018 66.3889 99.4845 66.3889 99.4845C65.9198 99.4845 57.9567 99.4845 57.9567 99.4845C57.9567 99.4845 57.6282 98.388 58.3364 98.3007C59.0445 98.2131 59.5128 98.1426 59.5128 98.1426L63.2932 96.4422C63.446 96.3732 63.6253 96.4455 63.6889 96.6018L63.883 97.0767C63.883 97.0767 64.5386 97.3854 64.9485 97.3854C65.1153 97.3854 65.3457 97.317 65.5607 97.2363Z" fill="#E4E4E4"/>
<path fill-rule="evenodd" clip-rule="evenodd" d="M72.8024 96.3819L63.5627 95.37L70.4107 63.4287H78.6863L72.8024 96.3819Z" fill="#FFCA28"/>
<path fill-rule="evenodd" clip-rule="evenodd" d="M91.2722 87.4008L85.2115 94.6398C85.2115 94.6398 75.6358 84.0864 74.0462 80.8677C72.4568 77.649 71.1882 63.4287 71.1882 63.4287H80.5055C80.5055 63.4287 81.1982 75.939 81.4393 76.5213C81.6808 77.1033 91.2722 87.4008 91.2722 87.4008Z" fill="#FFCA28"/>
<path fill-rule="evenodd" clip-rule="evenodd" d="M62.5356 53.7948L67.2163 57.4467L65.0017 59.1942L61.8177 55.158C59.9414 54.2988 59.1069 53.7564 59.3141 53.5305C59.4886 53.34 59.7155 53.3838 59.9242 53.4243C60.0868 53.4555 60.2384 53.4849 60.3463 53.3997C60.5928 53.2053 60.316 52.3437 60.019 51.537C59.7217 50.7306 60.1537 50.8659 60.3897 51.0126C61.1282 51.7101 61.8435 52.6374 62.5356 53.7948ZM85.1882 63.282L88.3081 63.4347C88.999 69.3036 89.4749 72.5442 89.7357 73.1565C89.9268 73.6056 91.4404 75.0189 92.4991 75.8367C92.9239 76.1649 92.7211 76.5453 92.5493 76.6401C91.4653 77.2383 90.7171 76.7448 89.9022 76.2075C89.6664 76.0521 89.425 75.8928 89.1681 75.7554C88.5037 75.3996 88.1975 75.7131 87.9079 76.0092C87.6516 76.2714 87.4084 76.5198 86.9417 76.2789C86.9883 76.1865 87.043 76.0833 87.1025 75.9723C87.4851 75.2538 88.0494 74.1942 87.7893 73.4307C87.6558 73.0386 86.7886 69.6558 85.1882 63.282Z" fill="#B28B67"/>
<path fill-rule="evenodd" clip-rule="evenodd" d="M80.0292 49.4316L78.8284 48.8988C75.4353 50.8857 72.7329 57.0303 70.7021 57.4227C68.7821 57.7938 66.534 56.4018 63.8928 54.6213L62.5098 56.4006C64.4345 59.9409 69.4484 63.7842 72.0673 62.9691C76.2541 61.6659 79.052 53.9529 80.0292 49.4316Z" fill="#072D83"/>
<path fill-rule="evenodd" clip-rule="evenodd" d="M81.5667 66.714C81.5667 66.714 74.0225 64.8159 70.468 63.9216C69.9608 63.7941 70.2391 63.0792 70.4044 62.7246C72.3139 58.6338 76.763 54.8259 78.2768 48.6996L81.6033 48.9987C83.1893 53.9622 82.7978 59.4837 81.5667 66.714Z" fill="#DDE3E9"/>
<path fill-rule="evenodd" clip-rule="evenodd" d="M73.2827 67.8948L83.2734 70.4085C83.7098 67.9626 83.8317 65.2908 83.7505 62.6355C84.9956 67.323 86.1649 70.7664 87.2583 72.9657L89.6983 73.0914C90.5167 63.336 87.8874 55.3224 81.8101 49.0506L81.7735 49.0413L80.5424 48.7317C80.5424 48.7317 72.5674 62.4759 73.2827 67.8948Z" fill="#072D83"/>
<path d="M41.2205 28.7596C46.5492 28.9209 51.5819 31.5966 54.6904 35.9253C57.0875 39.267 58.1952 43.2636 57.851 47.3634C57.4089 52.6467 54.4746 57.4992 49.9851 60.3633C47.7952 61.7622 45.564 62.5791 42.8731 62.9649C42.3606 63.0405 40.515 63.12 39.9234 63.0966C37.0482 62.9703 34.1864 62.1387 31.8482 60.7428L31.616 60.6027L26.7761 65.7273C24.1135 68.5449 21.8843 70.8795 21.8228 70.9176C22.0159 69.6426 20.8825 70.9284 20.8825 70.9284C20.5494 70.8312 19.6323 71.2815 19.6323 71.2815C19.6323 71.2815 17.938 72.099 16.9573 71.1537C15.9837 70.2213 16.6427 69.894 16.3823 69.3879C16.602 68.7432 15.9343 65.8593 16.3939 65.8581C16.4249 65.7948 18.614 63.4449 21.3212 60.5766C26.0427 55.5708 26.1926 55.4052 26.1475 55.3377C25.2398 53.9904 24.4053 52.1454 23.9458 50.4651C23.3814 48.3981 23.2097 46.1187 23.457 43.9401C23.9206 39.8496 25.9734 35.9205 29.0994 33.1437C32.4404 30.1761 36.7277 28.6236 41.2205 28.7596ZM39.4572 34.5186C35.8424 34.905 32.7163 36.8523 30.8073 39.9144C29.834 41.4738 29.2863 43.1376 29.1108 45.0843C29.0694 45.5445 29.1177 47.0577 29.192 47.5242C29.4918 49.4718 30.1794 51.1608 31.2973 52.6851C32.7707 54.6897 34.8678 56.1822 37.2171 56.8929C38.447 57.2628 39.4447 57.4041 40.7644 57.384C41.6584 57.3714 42.2143 57.3141 42.9751 57.1581C48.1062 56.0964 51.8937 51.7077 52.1699 46.5054C52.2005 45.9174 52.1289 44.5986 52.0397 44.0769C51.8167 42.7791 51.4522 41.7057 50.8383 40.5585C50.1959 39.3531 49.4624 38.4066 48.446 37.4757C46.0456 35.2716 42.7069 34.1736 39.4572 34.5186Z" fill="#FFCA28"/>
<g filter="url(#filter1_d_67_708)">
<path d="M16.0945 65.4588L50.1349 64.8588L50.4325 74.4588L16.3918 74.7588L16.0945 65.4588Z" fill="#B0BEC5"/>
</g>
<path d="M50.1352 65.7588H16.8379V80.7588H50.1352V65.7588Z" fill="#B0BEC5"/>
</g>
<defs>
<filter id="filter0_d_67_708" x="-30.8269" y="3.62152" width="107.451" height="146.369" filterUnits="userSpaceOnUse" color-interpolation-filters="sRGB">
<feFlood flood-opacity="0" result="BackgroundImageFix"/>
<feColorMatrix in="SourceAlpha" type="matrix" values="0 0 0 0 0 0 0 0 0 0 0 0 0 0 0 0 0 0 127 0" result="hardAlpha"/>
<feOffset dx="-10" dy="22"/>
<feGaussianBlur stdDeviation="17"/>
<feColorMatrix type="matrix" values="0 0 0 0 0 0 0 0 0 0 0 0 0 0 0 0 0 0 0.1 0"/>
<feBlend mode="normal" in2="BackgroundImageFix" result="effect1_dropShadow_67_708"/>
<feBlend mode="normal" in="SourceGraphic" in2="effect1_dropShadow_67_708" result="shape"/>
</filter>
<filter id="filter1_d_67_708" x="15.0945" y="63.8588" width="36.3379" height="11.9" filterUnits="userSpaceOnUse" color-interpolation-filters="sRGB">
<feFlood flood-opacity="0" result="BackgroundImageFix"/>
<feColorMatrix in="SourceAlpha" type="matrix" values="0 0 0 0 0 0 0 0 0 0 0 0 0 0 0 0 0 0 127 0" result="hardAlpha"/>
<feOffset/>
<feGaussianBlur stdDeviation="0.5"/>
<feColorMatrix type="matrix" values="0 0 0 0 0 0 0 0 0 0 0 0 0 0 0 0 0 0 0.25 0"/>
<feBlend mode="normal" in2="BackgroundImageFix" result="effect1_dropShadow_67_708"/>
<feBlend mode="normal" in="SourceGraphic" in2="effect1_dropShadow_67_708" result="shape"/>
</filter>
<clipPath id="clip0_67_708">
<rect width="99" height="114" fill="white"/>
</clipPath>
</defs>
</svg>
